<svg xmlns="http://www.w3.org/2000/svg" version="1.1" xmlns:xlink="http://www.w3.org/1999/xlink" xmlns:svgjs="http://svgjs.dev/svgjs" width="current" height="current" viewBox="0 0 2000 443"><g transform="matrix(1,0,0,1,0.3398876404492057,0.5617574749963978)"><svg viewBox="0 0 356 79" data-background-color="#fce44d" preserveAspectRatio="xMidYMid meet" height="443" width="2000" xmlns="http://www.w3.org/2000/svg" xmlns:xlink="http://www.w3.org/1999/xlink"><g id="tight-bounds" transform="matrix(1,0,0,1,-0.06049999999996203,-0.1001779695817504)"><svg viewBox="0 0 356.12052 79.2003559391635" height="79.2003559391635" width="356.12052"><g><svg viewBox="0 0 356.12052 79.2003559391635" height="79.2003559391635" width="356.12052"><g><svg viewBox="0 0 356.12052 79.2003559391635" height="79.2003559391635" width="356.12052"><g><path d="M0 79.2v-79.2h356.121v79.2z" fill="#000000" stroke="transparent" stroke-width="0" rx="0%" data-fill-palette-color="tertiary"></path><path d="M3.283 75.917v-72.634h349.554v72.634z" fill="#ffffff" stroke="transparent" stroke-width="0" rx="0%" data-fill-palette-color="quaternary"></path><path d="M9.85 69.35v-59.5h336.421v59.5z" fill="#000000" stroke="transparent" stroke-width="0" data-fill-palette-color="tertiary"></path></g><g transform="matrix(1,0,0,1,19.69974,19.69974)"><svg viewBox="0 0 316.72104 39.80087593916351" height="39.80087593916351" width="316.72104"><g><svg viewBox="0 0 316.72104 39.80087593916351" height="39.80087593916351" width="316.72104"><g transform="matrix(1,0,0,1,0,0)"><svg width="316.72104" viewBox="3.9000000953674316 -32.599998474121094 262.9800109863281 33.04999923706055" height="39.80087593916351" data-palette-color="#fce44d"><path d="M16.2-5.3L24.15-5.6 24.55-5.05 24.1 0 3.9 0 4.25-9.6 3.9-32.2 24.3-32.2 24.7-31.65 24.2-26.6 16.5-26.85 10.7-26.8 10.55-19.05 16.1-18.95 21.35-19.1 21.75-18.6 21.3-13.55 15.6-13.7 10.45-13.65 10.4-10.2 10.55-5.35 16.2-5.3ZM44.8-32.2L54.65 0 47.75 0 46.95-4.2 46.1-7.2 39.8-7.35 34.25-7.2 33.4-4.55 32.55 0 25.85 0 36.75-32.2 44.8-32.2ZM40.3-12.35L44.65-12.45 40.85-25.85 40.4-25.85 36-12.45 40.3-12.35ZM69.7-32.6Q73.8-32.6 77.85-30.95L77.85-30.95 76.75-25.1 75.75-24.7Q74.05-25.9 72.22-26.6 70.4-27.3 68.9-27.3L68.9-27.3Q66.9-27.3 65.7-26.23 64.5-25.15 64.5-23.75L64.5-23.75Q64.5-22.3 65.82-21.3 67.15-20.3 70-18.95L70-18.95Q72.75-17.7 74.47-16.63 76.2-15.55 77.42-13.8 78.65-12.05 78.65-9.5L78.65-9.5Q78.65-6.75 77.15-4.48 75.65-2.2 72.9-0.88 70.15 0.45 66.55 0.45L66.55 0.45Q61.8 0.45 57-1.6L57-1.6 57.95-7.9 58.7-8.3Q60.7-6.55 63.07-5.63 65.45-4.7 67.3-4.7L67.3-4.7Q69.5-4.7 70.72-5.78 71.95-6.85 71.95-8.35L71.95-8.35Q71.95-9.95 70.62-10.95 69.3-11.95 66.35-13.35L66.35-13.35Q63.65-14.55 61.95-15.6 60.25-16.65 59.05-18.4 57.85-20.15 57.85-22.65L57.85-22.65Q57.85-25.45 59.35-27.73 60.85-30 63.55-31.3 66.25-32.6 69.7-32.6L69.7-32.6ZM96.89-11.1L96.79-8.95 97.09 0 90.34 0 90.64-8.95 90.59-10.85 80.34-32.2 87.54-32.2 88.24-29.95 93.69-17.7 94.14-17.7 100.24-29.75 101.19-32.2 108.14-32.2 96.89-11.1ZM132.09-32.2L132.49-31.65 132.09-26.6 126.04-26.9 124.04-26.9 123.79-10.2 124.09 0 117.29 0 117.64-9.6 117.39-26.9 115.39-26.9 109.24-26.6 108.79-27.15 109.24-32.2 132.09-32.2ZM164.09-32.2L163.74-10.2 163.94 0 157.19 0 157.49-9.6 157.44-13.35 150.19-13.4 143.64-13.3 143.59-10.2 143.84 0 137.09 0 137.44-9.6 137.09-32.2 143.94-32.2 143.74-18.9 150.64-18.8 157.39-18.9 157.19-32.2 164.09-32.2ZM196.69-32.2L196.44-15.85 196.39-11.6Q196.44-5.85 193.04-2.7 189.64 0.45 183.29 0.45L183.29 0.45Q177.19 0.45 173.99-2.6 170.79-5.65 170.94-11.35L170.94-11.35 170.99-16 170.84-32.2 177.64-32.2 177.29-12.25Q177.24-8.6 178.84-6.85 180.44-5.1 183.69-5.1L183.69-5.1Q190.19-5.1 190.14-11.9L190.14-11.9 189.79-32.2 196.69-32.2ZM234.23-32.2L237.13 0 231.13 0 230.63-9.75 229.48-22.15 228.98-22.15 221.78-3.4 216.53-3.4 209.98-22.15 209.53-22.15 208.28-10.4 207.58 0 201.88 0 205.13-32.2 212.93-32.2 214.23-27.45 219.33-12.2 219.78-12.2 225.13-27.45 226.58-32.2 234.23-32.2ZM260.43-16.7Q263.73-15.9 265.31-14.03 266.88-12.15 266.88-9.1L266.88-9.1Q266.88 0.25 252.23 0.25L252.23 0.25Q247.93 0.25 243.43 0L243.43 0 243.78-9.6 243.43-32.2 254.88-32.25Q259.83-32.25 262.58-30.18 265.33-28.1 265.33-24.2L265.33-24.2Q265.33-21.6 264.06-19.65 262.78-17.7 260.43-16.7L260.43-16.7ZM258.38-23.3Q258.38-25.5 257.08-26.43 255.78-27.35 252.53-27.35L252.53-27.35 250.08-27.35 249.93-18.6 254.63-18.45Q256.53-18.95 257.46-20.1 258.38-21.25 258.38-23.3L258.38-23.3ZM253.38-4.6Q256.53-4.6 258.26-5.85 259.98-7.1 259.98-9.45L259.98-9.45Q259.98-13 255.38-13.85L255.38-13.85 249.83-13.75 249.78-10.2 249.93-4.8Q251.68-4.6 253.38-4.6L253.38-4.6Z" opacity="1" transform="matrix(1,0,0,1,0,0)" fill="#ffffff" class="undefined-text-0" data-fill-palette-color="quaternary" id="text-0"></path></svg></g></svg></g></svg></g></svg></g><g></g></svg></g><defs></defs></svg><rect width="356.12052" height="79.2003559391635" fill="none" stroke="none" visibility="hidden"></rect></g></svg></g></svg>